HIERARCHY
ROOT Hips
{
	OFFSET 0.000000 83.214638 0.000000
	CHANNELS 6 Xposition Yposition Zposition Xrotation Yrotation Zrotation
	JOINT Pelvis
	{
		OFFSET 0.000000 0.000000 0.000000
		CHANNELS 3 Xrotation Yrotation Zrotation
		JOINT LeftUpLeg
		{
			OFFSET 8.479700 -4.795502 -0.379100
			CHANNELS 3 Xrotation Yrotation Zrotation
			JOINT LeftLeg
			{
				OFFSET 0.024144 -32.555107 0.112900
				CHANNELS 3 Xrotation Yrotation Zrotation
				JOINT LeftFoot
				{
					OFFSET -0.024144 -32.638630 -3.012600
					CHANNELS 3 Xrotation Yrotation Zrotation
					JOINT LeftToeBase
					{
						OFFSET 0.970200 -13.225400 11.864200
						CHANNELS 3 Xrotation Yrotation Zrotation
						End Site
						{
							OFFSET 0.000000 12.319262 0.000000
						}
					}
					JOINT LFootTongue
					{
						OFFSET 1.142400 -1.059800 6.665200
						CHANNELS 3 Xrotation Yrotation Zrotation
						End Site
						{
							OFFSET 0.000000 12.319262 0.000000
						}
					}
				}
				JOINT LeftPantLeg
				{
					OFFSET 0.918482 -16.533964 -2.284700
					CHANNELS 3 Xrotation Yrotation Zrotation
					End Site
					{
						OFFSET 0.350399 24.744368 0.000000
					}
				}
			}
		}
		JOINT RightUpLeg
		{
			OFFSET -8.479700 -4.795502 -0.379100
			CHANNELS 3 Xrotation Yrotation Zrotation
			JOINT RightLeg
			{
				OFFSET -0.023144 -32.555092 0.112900
				CHANNELS 3 Xrotation Yrotation Zrotation
				JOINT RightFoot
				{
					OFFSET 0.023144 -32.638641 -3.012700
					CHANNELS 3 Xrotation Yrotation Zrotation
					JOINT RightToeBase
					{
						OFFSET -0.970200 -13.225400 11.864200
						CHANNELS 3 Xrotation Yrotation Zrotation
						End Site
						{
							OFFSET 0.000000 12.319244 0.000000
						}
					}
					JOINT RFootTongue
					{
						OFFSET -1.142200 -1.059800 6.665200
						CHANNELS 3 Xrotation Yrotation Zrotation
						End Site
						{
							OFFSET 0.000000 12.319243 0.000000
						}
					}
				}
				JOINT RightPantLeg
				{
					OFFSET -0.919482 -16.533978 -2.284800
					CHANNELS 3 Xrotation Yrotation Zrotation
					End Site
					{
						OFFSET -0.350400 24.744419 0.000000
					}
				}
			}
		}
	}
	JOINT Spine
	{
		OFFSET 0.000000 7.722000 1.166200
		CHANNELS 3 Xrotation Yrotation Zrotation
		JOINT Spine1
		{
			OFFSET 0.000000 12.024101 0.248800
			CHANNELS 3 Xrotation Yrotation Zrotation
			JOINT Spine2
			{
				OFFSET 0.000000 11.502998 -0.491200
				CHANNELS 3 Xrotation Yrotation Zrotation
				JOINT Neck
				{
					OFFSET 0.000000 18.430702 -3.123100
					CHANNELS 3 Xrotation Yrotation Zrotation
					JOINT Head
					{
						OFFSET 0.000000 9.051102 1.034000
						CHANNELS 3 Xrotation Yrotation Zrotation
						JOINT HairB
						{
							OFFSET 0.208400 24.786102 24.822300
							CHANNELS 3 Xrotation Yrotation Zrotation
							End Site
							{
								OFFSET 0.000000 32.263779 0.000000
							}
						}
						JOINT HairA
						{
							OFFSET -7.081100 24.428299 23.196600
							CHANNELS 3 Xrotation Yrotation Zrotation
							End Site
							{
								OFFSET 0.000000 32.263779 0.000000
							}
						}
						JOINT Hat
						{
							OFFSET 16.728800 15.048294 -15.439601
							CHANNELS 3 Xrotation Yrotation Zrotation
							End Site
							{
								OFFSET 0.000000 32.263779 0.000000
							}
						}
					}
				}
				JOINT LeftShoulder
				{
					OFFSET 6.197800 13.665199 -4.064700
					CHANNELS 3 Xrotation Yrotation Zrotation
					JOINT LeftArm
					{
						OFFSET 7.778100 -0.187103 -1.709300
						CHANNELS 3 Xrotation Yrotation Zrotation
						JOINT LeftForeArm
						{
							OFFSET 22.049376 0.000000 0.000000
							CHANNELS 3 Xrotation Yrotation Zrotation
							JOINT LeftHand
							{
								OFFSET 23.009392 0.000000 0.000000
								CHANNELS 3 Xrotation Yrotation Zrotation
								JOINT LeftHandThumb1
								{
									OFFSET 3.507191 -2.063065 3.133727
									CHANNELS 3 Xrotation Yrotation Zrotation
									JOINT LeftHandThumb2
									{
										OFFSET 3.101337 -1.790558 1.790558
										CHANNELS 3 Xrotation Yrotation Zrotation
										JOINT LeftHandThumb3
										{
											OFFSET 3.058640 -1.765907 1.765906
											CHANNELS 3 Xrotation Yrotation Zrotation
											End Site
											{
												OFFSET -0.415260 3.926476 -0.049563
											}
										}
									}
								}
								JOINT LeftHandIndex1
								{
									OFFSET 11.334419 -0.901459 3.706815
									CHANNELS 3 Xrotation Yrotation Zrotation
									JOINT LeftHandIndex2
									{
										OFFSET 3.283112 0.000000 0.000000
										CHANNELS 3 Xrotation Yrotation Zrotation
										JOINT LeftHandIndex3
										{
											OFFSET 3.323853 0.000000 0.000000
											CHANNELS 3 Xrotation Yrotation Zrotation
											End Site
											{
												OFFSET -1.135597 3.097809 0.402452
											}
										}
									}
								}
								JOINT LeftHandMiddle1
								{
									OFFSET 11.335861 0.000000 0.000000
									CHANNELS 3 Xrotation Yrotation Zrotation
									JOINT LeftHandMiddle2
									{
										OFFSET 3.410492 0.000000 0.000000
										CHANNELS 3 Xrotation Yrotation Zrotation
										JOINT LeftHandMiddle3
										{
											OFFSET 3.312172 0.000000 0.000000
											CHANNELS 3 Xrotation Yrotation Zrotation
											End Site
											{
												OFFSET -1.150200 3.080154 0.400270
											}
										}
									}
								}
								JOINT LeftHandRing1
								{
									OFFSET 11.514786 -0.013176 -3.003090
									CHANNELS 3 Xrotation Yrotation Zrotation
									JOINT LeftHandRing2
									{
										OFFSET 3.053307 0.000000 0.000000
										CHANNELS 3 Xrotation Yrotation Zrotation
										JOINT LeftHandRing3
										{
											OFFSET 3.295807 0.000000 0.000000
											CHANNELS 3 Xrotation Yrotation Zrotation
											End Site
											{
												OFFSET -1.281006 3.013344 0.375733
											}
										}
									}
								}
								JOINT LeftHandPinky1
								{
									OFFSET 10.518692 -0.960396 -5.730441
									CHANNELS 3 Xrotation Yrotation Zrotation
									JOINT LeftHandPinky2
									{
										OFFSET 2.861649 0.000000 0.000000
										CHANNELS 3 Xrotation Yrotation Zrotation
										JOINT LeftHandPinky3
										{
											OFFSET 2.863380 0.000000 0.000000
											CHANNELS 3 Xrotation Yrotation Zrotation
											End Site
											{
												OFFSET -0.843597 2.711159 0.369971
											}
										}
									}
								}
							}
							JOINT LSleeve
							{
								OFFSET 6.676277 -0.344902 -1.011730
								CHANNELS 3 Xrotation Yrotation Zrotation
								End Site
								{
									OFFSET 0.000000 14.885353 0.000000
								}
							}
						}
					}
				}
				JOINT RightShoulder
				{
					OFFSET -6.197800 13.665199 -4.064700
					CHANNELS 3 Xrotation Yrotation Zrotation
					JOINT RightArm
					{
						OFFSET -7.778100 -0.187103 -1.709300
						CHANNELS 3 Xrotation Yrotation Zrotation
						JOINT RightForeArm
						{
							OFFSET -22.049376 0.000000 0.000000
							CHANNELS 3 Xrotation Yrotation Zrotation
							JOINT RightHand
							{
								OFFSET -23.009392 0.000000 0.000000
								CHANNELS 3 Xrotation Yrotation Zrotation
								JOINT RightHandThumb1
								{
									OFFSET -3.507191 -2.063065 3.133727
									CHANNELS 3 Xrotation Yrotation Zrotation
									JOINT RightHandThumb2
									{
										OFFSET -3.101337 -1.790558 1.790558
										CHANNELS 3 Xrotation Yrotation Zrotation
										JOINT RightHandThumb3
										{
											OFFSET -3.058640 -1.765907 1.765906
											CHANNELS 3 Xrotation Yrotation Zrotation
											End Site
											{
												OFFSET 0.415260 3.926476 -0.049563
											}
										}
									}
								}
								JOINT RightHandIndex1
								{
									OFFSET -11.334419 -0.901459 3.706815
									CHANNELS 3 Xrotation Yrotation Zrotation
									JOINT RightHandIndex2
									{
										OFFSET -3.283112 0.000000 0.000000
										CHANNELS 3 Xrotation Yrotation Zrotation
										JOINT RightHandIndex3
										{
											OFFSET -3.323853 0.000000 0.000000
											CHANNELS 3 Xrotation Yrotation Zrotation
											End Site
											{
												OFFSET 1.135597 3.097809 0.402452
											}
										}
									}
								}
								JOINT RightHandMiddle1
								{
									OFFSET -11.335861 0.000000 0.000000
									CHANNELS 3 Xrotation Yrotation Zrotation
									JOINT RightHandMiddle2
									{
										OFFSET -3.410492 0.000000 0.000000
										CHANNELS 3 Xrotation Yrotation Zrotation
										JOINT RightHandMiddle3
										{
											OFFSET -3.312172 0.000000 0.000000
											CHANNELS 3 Xrotation Yrotation Zrotation
											End Site
											{
												OFFSET 1.150200 3.080154 0.400270
											}
										}
									}
								}
								JOINT RightHandRing1
								{
									OFFSET -11.514786 -0.013176 -3.003090
									CHANNELS 3 Xrotation Yrotation Zrotation
									JOINT RightHandRing2
									{
										OFFSET -3.053307 0.000000 0.000000
										CHANNELS 3 Xrotation Yrotation Zrotation
										JOINT RightHandRing3
										{
											OFFSET -3.295807 0.000000 0.000000
											CHANNELS 3 Xrotation Yrotation Zrotation
											End Site
											{
												OFFSET 1.281006 3.013344 0.375733
											}
										}
									}
								}
								JOINT RightHandPinky1
								{
									OFFSET -10.518692 -0.960396 -5.730441
									CHANNELS 3 Xrotation Yrotation Zrotation
									JOINT RightHandPinky2
									{
										OFFSET -2.861649 0.000000 0.000000
										CHANNELS 3 Xrotation Yrotation Zrotation
										JOINT RightHandPinky3
										{
											OFFSET -2.863380 0.000000 0.000000
											CHANNELS 3 Xrotation Yrotation Zrotation
											End Site
											{
												OFFSET 0.843597 2.711159 0.369971
											}
										}
									}
								}
							}
							JOINT RSleeve
							{
								OFFSET -6.676277 -0.344902 -1.011730
								CHANNELS 3 Xrotation Yrotation Zrotation
								End Site
								{
									OFFSET 0.000000 14.885353 0.000000
								}
							}
						}
					}
				}
				JOINT Backpack
				{
					OFFSET 0.000000 -2.471497 36.677502
					CHANNELS 3 Xrotation Yrotation Zrotation
					End Site
					{
						OFFSET 0.000000 20.427315 0.000000
					}
				}
				JOINT Hood
				{
					OFFSET 0.000000 18.754097 -10.431000
					CHANNELS 3 Xrotation Yrotation Zrotation
					JOINT Hood1
					{
						OFFSET 0.000000 -5.011002 -7.685901
						CHANNELS 3 Xrotation Yrotation Zrotation
						End Site
						{
							OFFSET 0.000000 9.175140 0.000000
						}
					}
				}
				JOINT LHoodieString
				{
					OFFSET 5.250500 16.397697 3.089900
					CHANNELS 3 Xrotation Yrotation Zrotation
					JOINT LHoodieString1
					{
						OFFSET 0.257700 -6.364304 3.694600
						CHANNELS 3 Xrotation Yrotation Zrotation
						JOINT LHoodieString2
						{
							OFFSET 0.000000 -9.643799 2.679100
							CHANNELS 3 Xrotation Yrotation Zrotation
							End Site
							{
								OFFSET 0.000000 10.009018 0.000000
							}
						}
					}
				}
				JOINT RHoodieString
				{
					OFFSET -5.250500 16.397697 3.089900
					CHANNELS 3 Xrotation Yrotation Zrotation
					JOINT RHoodieString1
					{
						OFFSET -0.257700 -6.364304 3.694600
						CHANNELS 3 Xrotation Yrotation Zrotation
						JOINT RHoodieString2
						{
							OFFSET 0.000000 -9.643799 2.679100
							CHANNELS 3 Xrotation Yrotation Zrotation
							End Site
							{
								OFFSET 0.000000 10.009018 0.000000
							}
						}
					}
				}
			}
			JOINT LBackpack_Strap
			{
				OFFSET 15.223200 -7.719803 -6.610900
				CHANNELS 3 Xrotation Yrotation Zrotation
				End Site
				{
					OFFSET 0.000000 16.040596 0.000000
				}
			}
			JOINT RBackpack_Strap
			{
				OFFSET -15.223000 -7.719803 -6.610900
				CHANNELS 3 Xrotation Yrotation Zrotation
				End Site
				{
					OFFSET 0.000000 16.040596 0.000000
				}
			}
		}
	}
	JOINT BoyFacialAnim_Joint
	{
		OFFSET 1.000000 -82.208099 -1.550900
		CHANNELS 3 Xrotation Yrotation Zrotation
		End Site
		{
			OFFSET 0.000000 30.012791 0.000000
		}
	}
}
MOTION
Frames: 4
Frame Time: 0.033333
0.004715 45.966331 -0.223930 -34.410134 10.372003 4.284941 -0.000004 -0.000000 -0.000000 -65.972189 -0.535450 23.950861 98.728185 -7.499638 -0.337638 -0.494359 -0.109642 1.567805 -0.000000 -0.000001 0.000000 -0.000000 -0.000001 0.000000 -0.000000 0.000001 -0.000000 -59.814180 1.018375 -31.326167 105.097371 3.267159 0.219982 -10.512904 -0.437931 1.490488 -0.000000 -0.000001 -0.000000 -0.000000 -0.000001 -0.000000 0.000001 -0.000001 0.000001 16.913994 -2.007251 -6.474602 5.026366 -0.417090 -1.644420 5.027742 -0.414377 -1.641715 3.822663 -0.120904 3.508912 12.525069 -6.324627 11.605707 -0.000000 0.000000 -0.000000 -0.000000 0.000000 -0.000000 -0.000000 0.000000 -0.000000 2.107748 -6.451083 -3.018765 -27.060779 -49.806904 -75.641941 -0.000022 -18.101374 -0.000003 46.208839 -4.793247 14.991056 -14.994574 0.850798 7.437745 12.044262 28.272137 3.560089 -0.000000 -0.000000 -0.000001 1.317511 5.977213 -38.143253 1.643727 4.069776 -43.972225 -0.000001 0.000000 -0.000002 2.384454 7.019808 -52.813208 1.645841 4.071951 -44.002193 0.000000 0.000000 -0.000003 2.849658 7.336126 -58.333722 1.649607 4.075842 -44.055109 -0.000001 0.000001 -0.000000 3.670981 7.753550 -67.379659 1.655977 4.082416 -44.144657 0.000001 0.000001 0.000002 -0.000003 0.000001 -0.000002 -0.315692 16.879395 13.432300 -41.385503 9.008909 58.549153 -0.000004 18.977524 -0.000007 52.039693 9.958324 -12.838976 -8.645186 5.612863 -8.726112 3.905490 -21.525039 -11.491973 -0.000001 -0.000001 0.000001 -1.244830 6.626270 8.391342 0.119396 -1.048884 12.988125 -0.000001 0.000000 0.000004 0.028093 -0.505488 0.708240 0.279293 -1.590076 19.923220 0.000001 0.000001 -0.000000 0.051761 -2.096135 -2.282688 0.227711 -1.439890 17.972319 -0.000002 0.000000 -0.000001 -0.288865 -11.164715 -2.527863 0.052855 -0.700369 8.630476 0.000001 -0.000000 0.000002 -0.000000 -0.000000 -0.000000 -0.000000 -0.000000 -0.000000 -0.000000 -0.000000 -0.000000 -0.000000 -0.000000 -0.000000 -0.000000 -0.000000 -0.000000 -0.000000 -0.000000 -0.000000 0.000001 -0.000000 -0.000000 -0.000000 -0.000000 -0.000000 -0.000000 -0.000000 -0.000000 0.000001 -0.000000 -0.000000 0.000000 0.000000 -0.000000 0.000000 0.000000 -0.000000 -0.000004 -0.000000 -0.000000 
0.007900 45.965080 -0.225368 -34.433801 10.365254 4.282133 -0.000000 0.000000 0.000001 -65.947095 -0.546182 23.950514 98.732686 -7.497243 -0.337353 -0.494432 -0.110272 1.553893 -0.000000 0.000001 -0.000000 -0.000000 0.000001 -0.000000 -0.000000 0.000001 0.000000 -59.790274 1.015708 -31.321277 105.096059 3.265746 0.219819 -10.514768 -0.437252 1.490376 -0.000000 -0.000001 -0.000000 -0.000000 -0.000001 -0.000000 0.000000 0.000000 0.000000 16.885110 -2.015452 -6.467441 5.061862 -0.422949 -1.647515 5.063327 -0.420132 -1.644753 3.825132 -0.122372 3.519173 12.539642 -6.311886 11.660025 0.000001 0.000000 0.000000 0.000001 0.000000 0.000000 0.000001 0.000000 0.000000 2.109054 -6.473813 -2.967180 -27.205871 -49.742458 -75.754694 -0.000022 -17.990151 -0.000016 46.226881 -4.825404 15.032114 -14.994574 0.850804 7.437745 12.044257 28.272147 3.560091 0.000000 0.000002 -0.000000 1.317500 5.977208 -38.143270 1.643702 4.069774 -43.972201 -0.000000 0.000000 0.000004 2.384456 7.019805 -52.813219 1.645867 4.071978 -44.002162 0.000000 -0.000001 0.000002 2.849643 7.336129 -58.333716 1.649601 4.075851 -44.055109 0.000000 0.000000 -0.000002 3.670991 7.753581 -67.379666 1.655998 4.082416 -44.144650 -0.000001 0.000001 0.000002 -0.000003 -0.000001 0.000001 -0.315832 16.894160 13.420534 -41.534032 9.089057 58.583099 0.000008 18.713398 -0.000010 52.062010 10.034826 -12.926786 -8.645192 5.612865 -8.726112 3.905484 -21.525073 -11.491986 0.000002 0.000002 0.000000 -1.244829 6.626287 8.391351 0.119407 -1.048888 12.988117 0.000000 0.000000 0.000002 0.028092 -0.505501 0.708240 0.279294 -1.590077 19.923232 -0.000000 0.000001 -0.000000 0.051755 -2.096151 -2.282700 0.227709 -1.439856 17.972321 -0.000001 0.000001 0.000002 -0.288863 -11.164706 -2.527859 0.052848 -0.700375 8.630475 -0.000002 -0.000001 0.000000 0.000002 0.000001 0.000000 0.000000 0.000000 -0.000001 0.000000 0.000000 -0.000001 0.000000 0.000000 -0.000001 0.000000 0.000000 -0.000001 0.000000 0.000000 0.000000 0.000000 0.000000 -0.000000 0.000000 0.000000 -0.000001 0.000000 0.000000 0.000000 0.000000 0.000000 -0.000000 -0.000000 -0.000001 0.000000 -0.000000 -0.000001 0.000000 -0.000000 0.000000 0.000001 
0.010206 45.964653 -0.228191 -34.456949 10.360674 4.280354 -0.000000 0.000000 0.000000 -65.923005 -0.551934 23.950429 98.733526 -7.494220 -0.337085 -0.494229 -0.110489 1.548660 -0.000000 -0.000002 0.000000 -0.000000 -0.000002 0.000000 0.000000 -0.000000 -0.000000 -59.766805 1.011733 -31.317234 105.092972 3.263966 0.219570 -10.516851 -0.436012 1.488864 0.000000 -0.000000 -0.000000 0.000000 -0.000000 -0.000000 -0.000001 -0.000001 0.000000 16.861647 -2.022939 -6.458442 5.096041 -0.429312 -1.649749 5.097602 -0.426378 -1.646920 3.827802 -0.124100 3.534184 12.541166 -6.298767 11.696772 0.000001 0.000000 -0.000000 0.000001 0.000000 -0.000000 0.000001 0.000000 -0.000000 2.109568 -6.497280 -2.922959 -27.333082 -49.693649 -75.847304 0.000005 -17.885110 0.000000 46.231228 -4.856749 15.076633 -14.994572 0.850785 7.437744 12.044263 28.272117 3.560081 -0.000001 -0.000001 -0.000000 1.317502 5.977197 -38.143263 1.643743 4.069769 -43.972218 0.000000 0.000000 -0.000002 2.384444 7.019786 -52.813215 1.645851 4.071969 -44.002179 -0.000000 -0.000001 -0.000002 2.849648 7.336113 -58.333729 1.649610 4.075859 -44.055106 -0.000002 -0.000000 -0.000000 3.670991 7.753559 -67.379680 1.655985 4.082406 -44.144657 0.000002 0.000001 -0.000000 -0.000003 0.000002 -0.000002 -0.315820 16.907324 13.410103 -41.663112 9.164261 58.608542 0.000003 18.498230 -0.000006 52.079680 10.095070 -12.999762 -8.645189 5.612854 -8.726112 3.905496 -21.525046 -11.491978 -0.000001 0.000001 -0.000001 -1.244832 6.626283 8.391348 0.119401 -1.048902 12.988120 -0.000000 0.000000 0.000002 0.028098 -0.505498 0.708240 0.279297 -1.590086 19.923220 -0.000000 0.000001 0.000002 0.051760 -2.096156 -2.282697 0.227710 -1.439886 17.972325 -0.000000 0.000000 0.000000 -0.288859 -11.164702 -2.527863 0.052847 -0.700375 8.630478 0.000000 -0.000001 0.000000 0.000001 -0.000000 0.000000 -0.000001 0.000000 -0.000001 -0.000001 0.000000 -0.000001 -0.000001 0.000000 -0.000001 -0.000001 0.000000 -0.000001 -0.000001 0.000000 -0.000000 0.000000 0.000000 -0.000000 -0.000001 0.000000 -0.000001 -0.000001 0.000000 -0.000000 0.000000 0.000000 -0.000000 0.000001 -0.000000 0.000000 0.000001 -0.000000 0.000000 -0.000000 0.000000 0.000000 
0.012225 45.963608 -0.232075 -34.470278 10.361560 4.277290 0.000002 0.000000 -0.000000 -65.911824 -0.552181 23.944770 98.732188 -7.480953 -0.337290 -0.493314 -0.107608 1.565307 -0.000000 -0.000000 -0.000000 -0.000000 -0.000000 -0.000000 -0.000000 0.000002 -0.000000 -59.753527 1.009901 -31.313774 105.090418 3.260706 0.219133 -10.518222 -0.433180 1.494594 -0.000000 -0.000001 -0.000000 -0.000000 -0.000001 -0.000000 -0.000000 0.000000 0.000000 16.849938 -2.031168 -6.446043 5.127634 -0.436008 -1.650954 5.129288 -0.432958 -1.648058 3.830591 -0.126593 3.557776 12.544704 -6.294905 11.721070 0.000000 0.000000 -0.000000 0.000000 0.000000 -0.000000 0.000000 0.000000 -0.000000 2.110175 -6.516956 -2.889993 -27.452989 -49.659102 -75.928221 -0.000001 -17.793828 0.000002 46.218937 -4.882498 15.117215 -14.994574 0.850790 7.437740 12.044263 28.272137 3.560085 0.000001 -0.000001 -0.000000 1.317498 5.977214 -38.143270 1.643752 4.069774 -43.972205 -0.000000 -0.000000 -0.000002 2.384455 7.019797 -52.813191 1.645842 4.071974 -44.002196 0.000002 -0.000000 0.000000 2.849642 7.336115 -58.333743 1.649607 4.075864 -44.055116 -0.000000 0.000000 -0.000000 3.670992 7.753558 -67.379645 1.655966 4.082393 -44.144657 -0.000001 0.000000 0.000005 -0.000003 -0.000004 0.000003 -0.315707 16.919263 13.400726 -41.769629 9.233701 58.623575 -0.000016 18.354410 0.000008 52.083635 10.134704 -13.049222 -8.645192 5.612862 -8.726111 3.905488 -21.525070 -11.491985 0.000001 -0.000000 -0.000001 -1.244832 6.626262 8.391344 0.119399 -1.048879 12.988123 -0.000001 0.000000 0.000002 0.028095 -0.505504 0.708234 0.279297 -1.590078 19.923221 0.000001 0.000000 0.000003 0.051758 -2.096143 -2.282702 0.227705 -1.439867 17.972321 -0.000000 0.000001 -0.000001 -0.288864 -11.164729 -2.527865 0.052847 -0.700373 8.630477 -0.000000 -0.000001 0.000000 0.000000 0.000001 0.000000 -0.000001 0.000000 -0.000001 -0.000001 0.000000 -0.000001 -0.000001 0.000000 -0.000001 -0.000001 0.000000 -0.000001 -0.000001 0.000000 -0.000000 -0.000000 0.000000 -0.000000 -0.000001 0.000000 -0.000001 -0.000001 0.000000 -0.000000 -0.000000 0.000000 -0.000000 -0.000001 0.000000 0.000001 -0.000001 0.000000 0.000001 0.000002 0.000000 -0.000000 
